<?xml version="1.0" standalone="no"?>
<!DOCTYPE svg PUBLIC "-//W3C//DTD SVG 20010904//EN"
 "http://www.w3.org/TR/2001/REC-SVG-20010904/DTD/svg10.dtd">
<svg version="1.0" xmlns="http://www.w3.org/2000/svg"
 width="1025.000000pt" height="1025.000000pt" viewBox="0 0 1025.000000 1025.000000"
 preserveAspectRatio="xMidYMid meet">
<metadata>
Created by potrace 1.14, written by Peter Selinger 2001-2017
</metadata>
<g transform="translate(0.000000,1025.000000) scale(0.100000,-0.100000)"
fill="#000000" stroke="none">
<path d="M3904 6932 c-16 -2 -33 -28 -66 -99 l-46 -95 -46 96 -46 97 -42 -3
-43 -3 0 -140 c0 -77 1 -146 3 -152 2 -7 15 -13 28 -13 24 0 24 0 25 118 l0
117 51 -100 c50 -99 64 -118 80 -109 5 3 31 50 58 105 28 54 51 99 53 99 1 0
2 -52 1 -116 l-1 -115 26 3 26 3 0 149 c0 140 -1 149 -20 155 -11 4 -29 5 -41
3z"/>
<path d="M4010 6929 c0 -5 25 -49 55 -99 51 -83 55 -96 55 -151 0 -60 0 -60
27 -57 26 3 27 5 28 63 0 56 5 68 58 153 l57 92 -35 0 c-19 0 -35 -5 -35 -10
0 -6 -17 -37 -38 -70 l-37 -59 -39 68 c-32 56 -44 70 -67 73 -16 3 -29 1 -29
-3z"/>
<path d="M2415 6785 c-242 -37 -584 -149 -785 -257 -93 -51 -230 -139 -290
-187 -92 -74 -107 -88 -201 -181 -181 -181 -250 -371 -181 -506 27 -53 97
-124 122 -124 33 0 45 41 30 96 -28 100 -11 159 83 279 80 103 312 330 397
388 25 17 47 34 48 39 2 4 15 8 28 8 14 0 27 7 31 15 3 9 29 31 57 48 48 31
219 117 232 117 3 0 20 6 37 14 57 26 190 67 287 89 116 26 394 30 500 8 210
-44 349 -122 393 -221 51 -116 2 -342 -111 -506 -116 -170 -462 -409 -707
-489 -80 -26 -181 -37 -178 -19 2 11 141 270 162 304 6 8 20 35 32 60 13 25
25 47 28 50 3 3 14 21 25 40 113 211 205 327 329 419 46 34 58 39 63 26 9 -22
24 -19 24 5 0 11 5 20 10 20 6 0 15 10 19 23 12 31 -15 57 -99 96 -95 44 -108
45 -154 14 -75 -49 -196 -186 -196 -221 0 -11 -13 -31 -29 -45 -22 -19 -27
-27 -18 -36 9 -9 6 -13 -11 -17 -12 -4 -22 -9 -23 -13 -3 -30 -12 -44 -41 -74
-19 -19 -45 -54 -57 -78 -12 -24 -36 -61 -52 -81 -16 -20 -29 -44 -29 -52 0
-8 -4 -17 -9 -21 -5 -3 -15 -22 -22 -43 -6 -20 -17 -44 -24 -52 -8 -8 -17 -27
-20 -42 -4 -16 -11 -28 -15 -28 -4 0 -17 -22 -29 -49 -11 -28 -26 -53 -32 -56
-5 -4 -21 -31 -34 -60 -27 -63 -40 -64 -104 -8 -65 55 -91 129 -71 203 16 61
18 86 10 101 -14 21 -50 -70 -54 -133 -4 -76 29 -146 106 -220 l61 -59 -61
-152 c-75 -185 -84 -209 -88 -222 -1 -5 -14 -41 -28 -80 -39 -109 -68 -233
-63 -273 5 -43 27 -90 54 -114 20 -18 81 -45 98 -43 33 3 65 17 60 25 -11 19
-7 127 10 226 20 117 64 239 151 423 60 125 65 133 88 127 14 -3 28 -1 31 5 5
6 18 8 34 3 14 -4 34 -6 44 -6 9 0 17 -3 17 -8 0 -4 -14 -6 -32 -3 -28 4 -30
3 -19 -11 21 -25 141 -21 141 5 0 5 -18 7 -40 5 -22 -2 -40 0 -40 5 0 5 13 9
29 9 15 0 40 10 55 21 l27 21 6 -21 c4 -15 13 -21 33 -21 39 0 90 20 90 35 0
10 12 13 39 12 85 -3 322 144 454 282 85 89 141 172 202 296 94 193 109 350
49 505 -25 64 -41 87 -109 156 -67 68 -95 88 -175 126 -89 42 -168 69 -250 83
-77 13 -258 14 -345 0z m-605 -234 c0 -5 -9 -12 -20 -16 -11 -3 -60 -32 -108
-65 -49 -32 -103 -61 -121 -65 -17 -3 -31 -13 -31 -21 0 -8 -4 -15 -10 -15 -5
-1 -15 -2 -20 -3 -6 0 -14 -7 -19 -14 -5 -8 -19 -12 -32 -10 -21 3 -13 11 51
53 41 27 91 61 110 75 19 15 64 38 100 50 36 13 69 27 75 32 12 11 25 10 25
-1z m1015 -229 c-6 -7 -45 19 -45 29 0 5 11 2 24 -8 13 -10 23 -19 21 -21z
m-1435 -35 c0 -19 -10 -27 -25 -20 -17 6 -8 33 11 33 8 0 14 -6 14 -13z m1525
-617 c-3 -5 -20 -19 -38 -30 l-32 -22 33 31 c32 30 49 40 37 21z m-228 -184
c-39 -36 -113 -75 -187 -100 -84 -28 -160 -44 -160 -35 0 6 -7 6 -18 0 -16 -9
-69 -14 -121 -12 -43 2 -9 19 49 25 151 16 252 41 340 84 36 17 79 42 95 56
44 35 45 22 2 -18z"/>
<path d="M7501 6578 c-20 -7 -51 -75 -51 -111 0 -12 -9 -33 -20 -47 -11 -14
-20 -33 -20 -42 0 -9 -7 -21 -15 -26 -9 -4 -17 -19 -20 -31 -2 -13 -11 -31
-19 -40 -8 -9 -19 -36 -26 -61 -6 -25 -24 -67 -40 -95 -34 -61 -218 -472 -288
-645 -92 -228 -204 -590 -291 -936 -55 -222 -64 -270 -63 -342 1 -111 66 -202
143 -202 35 1 74 22 62 33 -3 4 -2 7 4 7 13 0 43 61 43 87 0 13 -5 10 -19 -12
-10 -16 -27 -38 -38 -48 -29 -25 -43 -4 -48 72 -4 73 33 226 126 516 59 185
237 640 339 870 10 22 48 112 85 200 37 87 93 211 125 275 61 121 208 369 234
396 21 21 20 63 -3 116 -29 67 -48 80 -120 76 -34 -2 -70 -6 -80 -10z"/>
<path d="M5334 6439 c-3 -6 -8 -24 -11 -42 -7 -44 -42 -134 -58 -151 -8 -8
-29 -14 -47 -14 -18 0 -78 -9 -133 -20 -55 -11 -114 -18 -130 -16 -17 2 -21 1
-10 -3 19 -5 -111 -39 -381 -98 -61 -13 -119 -27 -130 -30 -15 -5 -16 -5 -4 4
19 12 212 60 365 92 61 12 115 27 120 32 7 7 7 8 0 5 -5 -3 -30 -9 -55 -12
-25 -3 -55 -8 -66 -10 -12 -2 -39 -7 -60 -10 -86 -14 -164 -28 -259 -48 -55
-11 -104 -20 -110 -19 -110 19 -168 9 -249 -44 -28 -18 -69 -36 -91 -39 -22
-3 -53 -8 -70 -12 -16 -3 -55 -7 -85 -8 -46 -2 -58 1 -78 21 -15 15 -21 30
-17 42 7 22 -12 38 -27 23 -19 -19 -18 -71 3 -119 35 -81 59 -95 169 -94 l75
0 -1 -57 c0 -31 5 -82 12 -112 11 -50 20 -62 93 -132 45 -42 81 -79 81 -83 0
-3 -26 -22 -58 -43 -69 -44 -183 -83 -190 -64 -6 19 -40 14 -52 -8 -6 -11 -12
-52 -15 -93 -11 -190 -138 -447 -221 -447 -51 0 -59 12 -57 87 2 115 11 166
38 226 24 56 24 58 5 52 -23 -7 -28 13 -5 22 9 3 22 18 31 34 8 16 20 29 28
29 7 0 18 17 24 39 11 34 65 91 87 91 4 0 13 6 21 14 7 8 35 22 61 31 112 39
121 53 72 110 -48 54 -163 104 -213 91 -57 -14 -172 -151 -206 -246 -13 -36
-26 -69 -30 -75 -22 -30 -112 -295 -114 -334 -8 -139 99 -261 228 -261 130 0
266 197 320 462 9 42 16 86 16 97 0 15 12 23 55 36 30 8 57 15 60 15 11 -1
111 53 141 76 l31 23 34 -25 c19 -14 54 -36 79 -49 69 -35 84 -56 78 -109 -4
-32 -20 -66 -54 -118 -76 -112 -99 -169 -103 -246 -2 -44 2 -59 23 -86 42 -55
141 -90 188 -65 26 14 115 99 104 99 -4 0 26 33 66 73 41 39 109 121 153 181
124 168 114 158 104 101 -4 -28 -7 -117 -5 -200 2 -127 6 -159 26 -210 28 -74
74 -137 118 -161 40 -21 99 -20 124 3 43 38 99 165 103 227 0 9 24 18 97 35
37 9 38 8 31 -18 -3 -14 -31 -91 -60 -171 -239 -640 -249 -676 -201 -728 12
-12 26 -22 32 -21 22 3 32 -2 59 -25 50 -43 82 -13 91 84 2 25 12 65 21 90 17
48 37 117 78 270 14 53 30 107 36 122 5 14 8 28 5 31 -2 2 2 10 11 17 8 7 15
20 15 30 0 19 74 244 89 270 5 9 12 30 15 47 10 43 21 50 91 57 191 21 223 24
300 32 39 3 72 9 75 13 3 4 11 6 18 5 6 -1 20 -2 30 -3 13 -1 17 -11 19 -45 1
-46 28 -105 66 -148 57 -62 149 -80 230 -46 40 18 65 40 117 105 36 45 102
203 120 288 29 132 29 197 1 260 -12 27 -20 49 -19 50 2 1 17 7 35 14 43 17
48 36 17 77 -31 40 -69 64 -142 90 -42 15 -58 16 -82 7 -24 -9 -34 -8 -52 5
-41 30 -88 53 -88 43 0 -23 15 -43 45 -64 l33 -22 -49 -55 c-27 -30 -58 -73
-69 -95 -25 -49 -146 -360 -155 -397 -4 -16 -8 -28 -9 -29 0 0 -61 -3 -134 -6
l-134 -5 6 55 c11 112 107 322 208 457 117 158 228 260 281 260 26 0 41 29 31
57 -7 20 -22 29 -66 43 -52 16 -59 16 -80 2 -33 -22 -61 -55 -128 -149 l-31
-41 -25 23 c-33 31 -72 37 -113 17 -81 -38 -234 -215 -333 -385 -25 -42 -72
-145 -103 -227 -63 -163 -57 -156 -148 -165 -102 -9 -138 -37 -113 -87 10 -20
8 -31 -17 -80 -54 -107 -119 -145 -163 -97 -17 19 -19 37 -18 193 1 201 15
268 120 579 34 104 60 195 57 202 -3 8 6 34 20 57 13 24 28 57 31 75 4 17 14
34 22 37 8 3 14 17 14 32 0 14 8 33 18 42 11 10 41 65 68 124 36 78 54 108 69
110 32 7 560 1 650 -6 147 -12 185 -17 238 -32 29 -7 75 -19 102 -25 28 -6 56
-16 62 -21 7 -6 28 -11 47 -13 44 -2 62 -17 77 -63 17 -52 32 -72 48 -62 23
14 4 73 -37 114 -72 73 -187 127 -323 155 -91 18 -98 19 -249 37 -25 3 -169 7
-320 10 -256 3 -275 5 -273 21 10 71 6 87 -24 112 -39 33 -120 64 -129 50z
m-113 -306 c-60 -108 -271 -681 -287 -778 -6 -40 -14 -52 -113 -164 -105 -120
-199 -203 -305 -272 -73 -48 -98 -51 -62 -8 14 17 26 35 26 40 0 6 21 32 46
59 l47 50 3 97 c4 157 -24 199 -226 327 -25 15 -47 30 -49 32 -2 2 14 30 37
62 22 31 66 108 97 169 52 101 58 118 57 173 l0 61 49 24 c27 14 49 23 49 20
0 -2 11 0 26 5 14 6 39 12 56 15 17 3 39 12 50 19 10 7 34 11 55 9 19 -2 56 3
82 11 25 9 62 18 81 22 19 3 71 13 115 23 44 9 102 18 128 19 43 3 47 1 38
-15z m-815 -241 c-7 -69 -10 -85 -29 -138 -30 -82 -102 -204 -121 -204 -14 0
-87 50 -113 78 -22 22 -28 37 -37 96 -5 30 14 69 48 98 17 14 18 20 8 27 -19
11 -19 15 -4 33 7 9 29 19 50 23 20 4 50 14 66 22 17 9 48 17 70 19 22 3 42 6
44 9 15 14 22 -14 18 -63z m1618 -264 c-4 -7 -19 -31 -32 -52 -62 -101 -139
-279 -158 -367 -2 -13 -7 -61 -11 -106 l-6 -83 -31 -1 c-17 0 -57 -2 -89 -5
l-57 -6 9 25 c13 33 130 269 160 322 86 151 121 204 158 242 40 40 73 58 57
31z m572 -225 c24 -57 25 -164 3 -246 -28 -102 -90 -224 -142 -279 -37 -40
-50 -48 -80 -48 -20 0 -39 6 -44 13 -4 6 -9 40 -10 75 l-1 62 30 0 c19 0 28 4
26 13 -3 6 -10 13 -16 13 -7 1 -17 2 -23 3 -14 1 -7 62 12 106 7 17 13 33 13
37 1 3 4 10 9 14 13 14 8 36 -8 30 -22 -8 -19 1 17 45 18 23 34 35 38 29 4 -6
12 9 19 32 7 24 20 52 29 62 15 17 100 76 109 76 2 0 11 -16 19 -37z"/>
<path d="M7657 5907 c-2 -7 0 -25 6 -42 5 -16 11 -77 13 -135 2 -58 5 -116 8
-130 2 -14 5 -29 5 -34 1 -6 19 28 42 75 22 46 44 85 49 87 4 2 19 13 33 26
13 12 38 28 56 35 29 12 45 51 22 51 -5 0 -17 8 -27 17 -9 10 -29 19 -43 21
-14 2 -56 12 -93 22 -49 13 -68 15 -71 7z"/>
<path d="M8270 5694 c0 -17 55 -74 72 -74 5 0 -18 -31 -50 -69 -42 -48 -67
-90 -87 -142 -15 -41 -32 -78 -36 -83 -5 -6 -9 -17 -9 -26 0 -9 -19 -34 -42
-55 -24 -21 -77 -68 -118 -105 -207 -187 -413 -346 -432 -334 -11 7 -2 56 20
104 19 43 20 52 10 66 -4 5 1 28 11 50 22 49 34 82 78 214 19 58 39 113 44
122 18 35 -6 65 -60 77 -32 7 -59 7 -75 1 -13 -5 -27 -6 -30 -3 -9 10 -36 -18
-36 -38 0 -11 5 -27 11 -37 8 -13 4 -39 -20 -112 -43 -136 -102 -338 -111
-384 -11 -56 -3 -86 33 -124 36 -37 81 -53 116 -40 38 14 122 74 186 134 33
31 89 83 125 117 36 33 106 101 157 150 l92 90 -26 -69 c-59 -157 -20 -299
100 -360 49 -26 134 -23 187 6 95 53 191 233 230 430 20 103 15 172 -17 233
-15 30 -14 37 9 40 7 2 24 10 37 19 l23 17 -21 35 c-29 46 -61 68 -140 96 -51
19 -69 21 -91 13 -16 -6 -32 -7 -37 -3 -4 3 -29 19 -55 34 -40 22 -48 24 -48
10z m275 -321 c34 -129 -20 -328 -128 -471 -22 -29 -48 -57 -58 -62 -27 -15
-66 -12 -84 6 -24 25 -13 193 20 280 29 78 29 78 10 70 -21 -8 -19 2 9 35 13
15 26 34 29 41 4 11 7 10 15 0 6 -10 13 -1 22 32 7 24 23 55 36 67 38 35 98
69 108 59 5 -5 14 -30 21 -57z"/>
<path d="M10148 3652 c-39 -8 -14 -20 43 -21 34 0 60 1 58 4 -8 8 -84 21 -101
17z"/>
<path d="M9933 3633 c27 -4 28 -5 10 -19 -17 -14 -16 -14 5 -4 29 14 19 30
-16 29 l-27 -2 28 -4z"/>
<path d="M9634 3608 c-3 -5 6 -8 20 -8 14 0 28 4 31 10 4 6 -5 9 -20 8 -15 -2
-29 -6 -31 -10z"/>
<path d="M2900 3598 c0 -4 11 -8 25 -8 14 0 25 4 25 10 0 5 -11 9 -25 8 -14
-1 -25 -6 -25 -10z"/>
<path d="M2710 3583 c-14 -3 -29 -9 -34 -13 -5 -6 3 -7 20 -4 16 3 33 9 39 15
5 5 7 8 5 8 -3 -1 -16 -4 -30 -6z"/>
<path d="M5227 3584 c-1 -1 -80 -4 -174 -6 -127 -4 -177 -9 -190 -19 -15 -12
-16 -12 -8 1 6 11 5 12 -4 4 -8 -8 -25 -8 -55 -1 -35 8 -50 6 -87 -10 -24 -11
-57 -19 -74 -17 -16 1 -81 5 -143 8 -61 4 -119 9 -127 12 -8 4 -15 2 -15 -3 0
-5 -38 -9 -84 -9 -46 1 -82 -2 -79 -6 2 -5 0 -8 -6 -8 -5 0 -11 4 -13 9 -1 5
-23 12 -48 16 -25 4 -49 10 -55 14 -5 4 -55 7 -110 6 -643 -15 -813 -22 -905
-40 -71 -13 -113 -15 -124 -6 -7 6 -43 8 -87 6 -41 -3 -122 -5 -181 -5 -59 0
-126 -4 -150 -9 -94 -21 -193 -28 -533 -36 -115 -3 -239 -8 -275 -10 -36 -2
-119 -7 -185 -10 -66 -3 -145 -7 -175 -10 -30 -2 -95 -7 -145 -10 -49 -3 -110
-8 -135 -10 -25 -2 -72 -6 -105 -9 -63 -5 -192 -17 -235 -21 -14 -2 -56 -6
-95 -9 -38 -4 -86 -9 -105 -11 -19 -2 -60 -6 -90 -10 -99 -10 -134 -16 -218
-36 -46 -10 -100 -19 -120 -20 -29 0 -33 -2 -17 -8 11 -5 29 -7 40 -5 126 21
232 26 304 15 44 -7 78 -8 85 -3 15 12 168 24 161 13 -3 -5 38 -7 93 -4 96 5
218 7 257 4 11 -1 71 1 133 5 69 3 112 2 112 -4 0 -6 15 -6 42 0 29 6 44 6 46
-1 2 -7 35 -9 90 -6 62 4 80 2 64 -5 -33 -14 -27 -18 21 -14 90 8 126 16 138
31 24 28 63 35 214 38 83 2 161 6 175 9 36 9 446 20 633 17 110 -1 157 1 157
9 0 6 4 9 8 6 5 -3 69 -8 143 -11 237 -10 382 -23 417 -36 30 -11 35 -11 27 1
-3 6 -2 10 4 10 5 0 12 -6 14 -12 4 -9 6 -7 6 3 1 14 13 15 94 11 50 -2 108
-5 129 -6 20 0 34 -4 31 -8 -2 -5 1 -8 6 -8 6 0 11 4 11 9 0 17 181 25 645 25
436 1 590 -2 1160 -20 275 -9 515 -10 518 -2 3 11 229 12 257 1 16 -7 37 -6
60 0 19 6 125 11 235 12 110 2 229 5 265 8 36 4 135 9 220 12 85 4 180 8 210
10 30 2 145 6 255 10 361 12 586 24 597 31 9 6 80 11 268 18 80 4 170 8 200
11 30 3 87 7 125 10 39 3 86 7 105 10 19 2 60 7 90 10 57 7 79 9 145 19 22 4
56 9 75 11 19 3 46 7 60 10 13 2 42 7 65 11 74 11 51 16 -45 10 -52 -3 -135
-8 -185 -11 -240 -14 -330 -21 -475 -40 -24 -4 -220 -5 -330 -3 -57 1 -264
-10 -335 -17 -174 -20 -425 -29 -425 -16 0 9 78 18 113 12 4 0 7 4 7 10 0 8 5
8 15 -1 12 -10 15 -10 15 1 0 11 2 11 10 -1 7 -11 10 -12 10 -2 0 9 10 12 32
10 21 -2 33 2 35 12 3 9 1 11 -4 5 -4 -5 -57 -11 -118 -11 -184 -2 -498 -14
-503 -19 -4 -4 206 -8 352 -6 11 0 15 -4 10 -8 -17 -16 -285 -27 -768 -33
-189 -2 -251 1 -254 10 -3 9 -9 8 -25 -3 -12 -8 -41 -15 -65 -15 -40 0 -43 2
-31 16 12 15 11 16 -11 9 -14 -4 -86 -7 -160 -5 -175 3 -170 3 -170 12 0 4
-12 8 -26 8 -14 0 -46 5 -71 11 -36 9 -47 9 -53 -1 -5 -9 -24 -11 -59 -8 -29
3 -70 2 -92 -2 -28 -5 -37 -4 -30 4 7 8 -15 12 -76 14 -55 1 -82 -1 -78 -8 7
-11 -67 -15 -78 -4 -3 3 -1 15 6 25 9 14 24 19 59 19 26 0 50 5 54 12 4 6 3 8
-4 4 -6 -3 -32 1 -58 10 -36 12 -236 27 -247 18z"/>
<path d="M4078 3573 c7 -3 16 -2 19 1 4 3 -2 6 -13 5 -11 0 -14 -3 -6 -6z"/>
<path d="M7808 3572 c-21 -2 -38 -6 -38 -10 0 -4 12 -7 28 -6 15 1 42 3 61 3
19 1 32 3 29 6 -8 8 -39 11 -80 7z"/>
</g>
</svg>
