<?xml version="1.0" standalone="no"?>
<!DOCTYPE svg PUBLIC "-//W3C//DTD SVG 20010904//EN"
 "http://www.w3.org/TR/2001/REC-SVG-20010904/DTD/svg10.dtd">
<svg version="1.0" xmlns="http://www.w3.org/2000/svg"
 width="1025.000000pt" height="365.000000pt" viewBox="0 0 1025.000000 365.000000"
 preserveAspectRatio="xMidYMid meet">

<g transform="translate(0.000000,365.000000) scale(0.100000,-0.100000)"
fill="#000000" stroke="none">
<path d="M3620 3475 l0 -155 25 0 25 0 1 118 0 117 52 -102 c36 -72 57 -103
69 -103 12 0 33 30 67 98 l50 97 0 -112 1 -113 30 0 30 0 0 155 0 155 -44 0
-43 0 -46 -97 -45 -98 -45 98 -46 97 -40 0 -41 0 0 -155z"/>
<path d="M4010 3625 c0 -3 25 -45 55 -93 51 -83 55 -93 55 -150 0 -59 1 -62
25 -62 24 0 25 3 25 58 0 52 5 65 60 155 l60 97 -30 0 c-25 0 -34 -8 -67 -65
-21 -35 -41 -65 -45 -65 -4 0 -24 29 -45 65 -32 54 -42 65 -65 65 -16 0 -28
-2 -28 -5z"/>
<path d="M2438 3489 c-183 -27 -485 -115 -668 -194 -223 -97 -447 -251 -620
-424 -112 -113 -161 -186 -197 -290 -28 -82 -29 -135 -3 -204 23 -61 99 -147
130 -147 34 0 43 43 25 115 -19 76 -7 123 51 211 70 107 406 435 467 457 9 4
17 11 17 17 0 5 11 10 24 10 14 0 30 10 39 23 20 31 179 116 319 171 231 90
403 122 618 113 276 -12 504 -106 561 -231 24 -52 25 -175 3 -265 -9 -36 -36
-108 -61 -160 -36 -75 -59 -108 -121 -170 -149 -149 -385 -307 -569 -380 -87
-35 -238 -69 -250 -57 -3 2 50 105 117 228 247 450 312 545 444 642 36 26 66
52 66 56 0 4 -11 12 -25 18 -14 6 -25 16 -25 22 0 16 59 -31 66 -52 7 -24 24
-23 24 1 0 10 7 21 15 25 21 8 19 49 -3 69 -33 30 -173 88 -196 81 -65 -20
-221 -178 -233 -237 -3 -15 -18 -38 -34 -51 -21 -18 -25 -26 -16 -35 9 -9 6
-13 -11 -17 -13 -4 -22 -14 -22 -26 0 -10 -12 -30 -27 -44 -33 -30 -121 -166
-158 -244 -15 -30 -33 -66 -41 -80 -7 -14 -19 -36 -25 -50 -6 -14 -15 -32 -20
-40 -5 -8 -19 -34 -30 -57 -11 -23 -24 -45 -30 -49 -5 -3 -21 -30 -34 -60
l-24 -55 -39 20 c-90 46 -135 140 -113 234 7 29 11 66 9 82 -4 30 -4 29 -27
-19 -51 -109 -24 -216 80 -317 l61 -59 -80 -202 c-169 -425 -190 -534 -120
-623 30 -38 91 -64 131 -56 l32 7 7 109 c12 192 43 299 164 554 60 126 65 133
88 127 14 -3 27 -2 30 2 3 5 40 7 81 4 67 -4 80 -2 105 17 36 26 40 26 40 1 0
-15 7 -20 29 -20 40 0 91 20 91 35 0 8 14 12 39 11 75 -2 283 121 417 246 83
78 137 148 203 263 136 241 156 431 65 614 -117 235 -488 381 -836 330z m-643
-245 c-68 -50 -206 -134 -219 -134 -9 0 -25 -9 -36 -20 -11 -11 -27 -20 -35
-20 -7 0 -18 -7 -23 -16 -5 -10 -18 -14 -33 -12 -21 3 -12 11 56 57 44 29 88
59 97 68 14 13 194 93 208 92 3 0 -4 -6 -15 -15z m-405 -258 c0 -20 -13 -27
-30 -15 -13 8 -13 10 0 19 21 14 30 12 30 -4z m1530 -609 c0 -2 -12 -14 -26
-28 -25 -22 -26 -23 -15 -2 9 18 19 26 39 32 1 1 2 0 2 -2z m-221 -179 c-43
-44 -104 -78 -195 -109 -88 -31 -124 -38 -258 -46 -86 -6 -81 12 6 21 188 21
349 73 433 140 37 30 45 26 14 -6z"/>
<path d="M7512 3283 c-26 -5 -61 -70 -62 -114 0 -15 -6 -32 -14 -38 -8 -7 -18
-26 -21 -42 -4 -17 -13 -33 -21 -36 -8 -3 -14 -13 -14 -22 0 -9 -9 -29 -20
-46 -11 -16 -27 -54 -36 -84 -8 -29 -24 -65 -34 -80 -25 -33 -218 -468 -304
-683 -74 -185 -199 -591 -278 -904 -47 -186 -53 -220 -53 -314 0 -88 3 -111
21 -140 28 -49 80 -82 123 -78 39 3 85 52 97 103 6 30 6 29 -31 -13 -46 -53
-60 -45 -69 38 -6 49 -1 81 23 178 32 126 110 382 160 523 33 92 248 620 363
889 110 258 242 508 344 653 19 26 34 54 34 63 0 36 -25 97 -51 125 -24 25
-33 29 -81 28 -29 -1 -64 -4 -76 -6z"/>
<path d="M5325 3115 c-3 -14 -8 -37 -11 -52 -12 -60 -46 -123 -68 -127 -172
-30 -238 -40 -276 -39 -25 0 -37 -2 -28 -6 10 -4 -98 -33 -250 -68 -257 -59
-338 -73 -217 -37 32 9 144 36 249 60 105 23 184 43 176 43 -22 1 -298 -45
-414 -69 -72 -15 -117 -18 -162 -14 -83 9 -119 1 -190 -42 -64 -39 -162 -64
-261 -67 -71 -2 -97 14 -98 60 0 36 -23 41 -35 7 -20 -52 19 -153 70 -179 18
-10 57 -15 107 -15 l78 0 2 -84 c2 -109 16 -139 111 -226 74 -70 74 -71 56
-91 -21 -24 -144 -84 -191 -94 -19 -4 -40 -1 -53 7 -32 20 -46 -7 -54 -104
-12 -149 -98 -364 -167 -422 -45 -38 -99 -34 -112 9 -12 37 10 218 32 265 25
54 26 71 6 64 -20 -8 -19 13 1 24 8 5 21 20 28 33 6 13 18 24 25 24 7 0 21 20
30 45 13 36 28 53 76 85 32 21 86 48 119 60 32 11 64 28 70 37 25 40 -99 136
-197 153 -49 9 -96 -22 -166 -108 -50 -60 -88 -143 -181 -390 -65 -172 -53
-277 40 -361 93 -83 210 -71 301 32 61 70 125 210 154 338 14 60 25 119 25
132 0 12 4 22 9 22 27 0 189 67 232 95 l48 33 39 -28 c21 -15 54 -36 73 -45
60 -31 79 -54 79 -100 0 -34 -10 -57 -57 -126 -141 -209 -136 -351 15 -395 29
-9 64 -13 77 -10 22 6 139 106 123 106 -4 0 25 33 65 73 40 39 115 129 166
200 52 70 95 126 97 125 1 -2 -2 -25 -6 -53 -14 -79 -11 -264 4 -336 18 -85
55 -157 101 -197 40 -36 67 -45 116 -40 29 3 40 12 76 66 39 57 49 81 67 164
5 23 14 28 69 41 34 7 63 11 65 7 1 -3 -61 -179 -139 -391 -161 -435 -173
-488 -124 -527 15 -12 35 -22 45 -22 9 0 25 -9 35 -20 24 -27 61 -25 79 2 8
13 17 46 20 73 2 28 12 70 21 95 16 44 35 109 70 240 32 123 57 200 66 206 5
3 9 14 9 25 0 22 94 298 116 340 11 23 22 28 71 33 32 3 139 15 238 26 218 24
205 24 205 2 0 -44 34 -126 67 -163 49 -54 85 -71 152 -72 109 -2 169 51 252
218 82 168 111 360 69 454 -11 24 -19 45 -18 46 2 1 17 7 35 14 43 17 48 36
17 77 -33 42 -73 67 -146 90 -44 13 -63 15 -81 7 -20 -9 -31 -6 -70 18 -50 31
-67 36 -67 18 0 -13 58 -69 71 -69 5 0 -17 -31 -48 -69 -51 -60 -67 -91 -135
-262 -42 -107 -80 -206 -83 -220 -6 -24 -12 -27 -67 -33 -34 -3 -94 -6 -134
-6 l-74 0 0 36 c0 51 42 171 105 299 88 181 290 416 370 431 42 8 59 26 51 57
-6 27 -38 44 -97 53 -36 6 -44 3 -76 -27 -19 -19 -58 -64 -85 -102 l-51 -67
-20 20 c-25 28 -59 40 -88 33 -71 -18 -192 -139 -300 -302 -86 -127 -104 -163
-164 -321 -26 -69 -51 -132 -56 -141 -6 -11 -29 -18 -80 -23 -93 -8 -123 -23
-127 -60 -2 -16 1 -33 6 -38 13 -13 -38 -117 -78 -156 -37 -38 -78 -42 -106
-11 -17 19 -19 38 -18 193 0 200 12 257 118 575 36 105 62 199 59 210 -3 11 6
35 21 57 14 21 26 48 26 60 0 11 9 29 20 39 11 10 20 30 20 45 0 16 6 30 13
33 7 3 37 57 67 120 l53 115 96 8 c128 9 666 -12 761 -31 94 -19 207 -49 216
-58 4 -4 20 -7 36 -7 47 0 68 -18 95 -81 21 -49 28 -57 40 -47 37 30 -20 116
-119 179 -143 92 -497 145 -910 137 l-176 -3 5 53 c7 62 -5 79 -73 111 -59 28
-82 27 -89 -4z m-105 -269 c0 -3 -27 -71 -61 -153 -88 -216 -186 -489 -212
-592 -21 -85 -26 -94 -96 -175 -41 -48 -111 -122 -157 -165 -83 -79 -224 -181
-249 -181 -16 0 41 88 90 140 31 32 34 42 40 116 14 155 -18 208 -190 324 -44
29 -82 54 -84 56 -2 2 17 34 42 71 25 37 68 112 96 166 46 88 51 103 51 163
l0 65 53 24 c28 14 77 30 107 37 30 6 65 18 76 25 13 8 32 11 47 8 14 -4 70 4
128 19 178 43 233 54 277 55 23 0 42 -1 42 -3z m-817 -261 c-3 -69 -23 -136
-67 -224 -26 -50 -72 -111 -85 -111 -4 0 -35 20 -68 45 -56 40 -62 48 -73 98
-11 48 -10 57 6 83 10 16 27 37 38 46 17 14 18 20 7 27 -18 11 3 51 27 51 9 1
35 8 57 16 52 20 137 42 150 39 6 -1 9 -31 8 -70z m1602 -287 c-105 -171 -172
-351 -181 -486 l-7 -89 -84 -7 c-47 -4 -87 -5 -89 -3 -8 7 181 377 241 472 72
114 101 146 143 154 2 1 -9 -18 -23 -41z m601 -225 c21 -74 14 -164 -21 -263
-38 -104 -78 -178 -129 -233 -35 -39 -49 -47 -77 -47 -49 0 -59 15 -59 87 l0
63 30 0 c36 0 40 17 5 26 -19 5 -25 13 -25 35 0 16 11 54 25 85 29 65 31 78
10 70 -21 -8 -19 8 5 29 11 10 22 26 26 37 3 11 12 17 19 14 9 -3 18 8 26 32
6 20 19 46 28 56 23 27 102 76 112 70 5 -3 16 -30 25 -61z"/>
<path d="M7665 2578 c3 -18 9 -89 11 -158 3 -69 7 -132 10 -140 4 -9 21 15 46
64 42 84 60 104 120 136 20 11 40 25 44 31 10 16 -50 69 -79 69 -12 0 -44 7
-71 15 -78 24 -90 21 -81 -17z"/>
<path d="M8270 2389 c0 -14 58 -69 73 -69 6 0 -5 -17 -25 -37 -61 -65 -93
-117 -128 -213 l-35 -92 -120 -107 c-237 -212 -404 -344 -459 -364 -16 -7 -18
-3 -11 30 3 21 15 58 26 82 12 28 16 48 10 55 -6 7 -3 28 9 56 47 113 90 232
101 276 7 27 16 54 21 61 25 32 -25 74 -89 76 -80 3 -101 -2 -107 -27 -3 -14
-1 -35 5 -48 8 -19 4 -43 -20 -118 -64 -203 -113 -387 -114 -428 0 -46 24 -81
75 -108 81 -42 141 0 527 371 57 55 101 92 98 82 -4 -10 -16 -49 -28 -88 -33
-109 -16 -192 55 -267 44 -48 81 -64 145 -65 109 -2 170 52 251 218 57 118 79
199 87 316 5 73 3 92 -16 134 -12 26 -20 49 -19 50 2 1 17 7 35 14 45 18 48
37 13 81 -46 58 -178 113 -223 93 -20 -9 -32 -6 -70 18 -50 31 -67 36 -67 18z
m279 -331 c16 -71 14 -114 -10 -198 -28 -104 -90 -226 -142 -282 -36 -40 -50
-48 -79 -48 -56 0 -62 15 -54 137 5 78 13 121 31 164 29 68 30 73 10 65 -9 -3
-15 0 -15 8 0 8 7 16 15 20 8 3 20 17 27 31 6 14 17 24 24 21 8 -3 17 9 25 32
15 47 33 68 89 104 41 26 46 27 57 12 6 -9 17 -38 22 -66z"/>
<path d="M2252 1963 c11 -13 94 -18 122 -7 35 13 12 21 -58 20 -58 -1 -72 -4
-64 -13z"/>
<path d="M10142 349 c-37 -14 -25 -19 45 -19 36 0 64 3 60 6 -12 12 -84 21
-105 13z"/>
<path d="M9918 333 c6 -2 18 -2 25 0 6 3 1 5 -13 5 -14 0 -19 -2 -12 -5z"/>
<path d="M9635 310 c-3 -6 5 -10 19 -10 14 0 28 5 31 10 3 6 -5 10 -19 10 -14
0 -28 -4 -31 -10z"/>
<path d="M2910 300 c-12 -8 -9 -10 13 -10 15 0 27 5 27 10 0 13 -20 13 -40 0z"/>
<path d="M2693 273 c9 -2 25 -2 35 0 9 3 1 5 -18 5 -19 0 -27 -2 -17 -5z"/>
<path d="M3888 274 c-2 -2 -132 -6 -289 -9 -330 -6 -442 -13 -585 -36 -51 -8
-78 -8 -86 -1 -15 12 -391 -1 -478 -17 -30 -5 -183 -15 -340 -20 -821 -31
-1687 -99 -1875 -148 -33 -8 -91 -19 -130 -24 -54 -6 -45 -6 40 -2 166 9 255
9 309 0 30 -5 46 -5 42 1 -6 10 166 23 174 13 5 -7 140 -4 231 5 31 3 73 1 93
-4 24 -7 36 -7 36 0 0 11 319 7 326 -4 3 -4 42 -5 87 -2 62 3 76 2 58 -6 -38
-17 -22 -19 63 -9 55 6 86 14 100 28 32 28 59 34 201 37 71 2 218 8 325 14
524 27 1048 17 1235 -25 21 -5 26 -4 16 3 -36 26 178 23 284 -4 15 -4 16 -3 6
4 -42 30 701 39 1414 17 383 -11 645 -14 900 -9 198 4 452 9 565 11 113 1 288
7 390 13 102 5 302 14 445 20 484 19 710 31 745 40 19 4 112 11 205 15 192 7
350 19 540 41 159 18 397 55 391 61 -6 6 -510 -25 -616 -38 -47 -6 -233 -14
-415 -19 -181 -5 -370 -13 -420 -19 -155 -18 -385 -26 -385 -13 0 8 20 12 53
13 28 0 84 7 122 14 64 12 51 13 -160 8 -126 -3 -268 -9 -315 -13 -73 -6 -60
-7 92 -9 97 0 179 -5 182 -10 9 -14 -133 -21 -588 -27 -331 -5 -427 -4 -422 5
5 8 -5 7 -29 -3 -42 -18 -120 -22 -110 -6 4 6 -45 10 -141 10 -81 0 -161 4
-178 9 -70 21 -159 33 -166 22 -4 -7 -35 -11 -76 -10 -38 1 -85 -1 -104 -5
-24 -5 -30 -4 -21 2 10 7 -6 12 -55 17 -48 6 -69 4 -72 -4 -4 -11 -74 -16 -85
-5 -3 3 -1 15 6 25 9 14 23 19 56 19 51 0 45 10 -16 30 -39 12 -198 11 -668
-4 -41 -1 -82 -9 -100 -18 -26 -14 -49 -15 -165 -7 -74 5 -145 11 -157 14 -13
3 -23 1 -23 -5 0 -6 -31 -10 -76 -10 -87 0 -216 21 -189 30 9 3 -30 6 -88 7
-58 1 -107 -1 -109 -3z"/>
<path d="M7805 269 l-60 -6 73 -1 c39 -1 72 0 72 2 0 9 -29 11 -85 5z"/>
<path d="M7778 233 c6 -2 18 -2 25 0 6 3 1 5 -13 5 -14 0 -19 -2 -12 -5z"/>
</g>
</svg>
